<?xml version="1.0" encoding="UTF-8"?>
<svg xmlns="http://www.w3.org/2000/svg" viewBox="0 0 170 170" width="170" height="170">
<path d="M101.95 33.89C113.22 33.89 124.48 33.89 135.75 33.89C135.87 45.18 135.99 56.46 136.11 67.75C124.79 67.94 113.46 68.14 102.13 68.33C90.81 68.22 79.49 68.11 68.16 68C68.19 56.83 68.22 45.67 68.25 34.5C79.48 34.3 90.72 34.1 101.95 33.89Z" fill="#5fe6d2" fill-rule="evenodd" stroke="#5fe6d2" stroke-width="0.25" stroke-linejoin="round"/>
<path d="M68.16 68C79.49 68.11 90.81 68.22 102.13 68.33C102.09 79.47 102.05 90.61 102.01 101.75C90.73 101.89 79.44 102.02 68.15 102.16C68.16 90.77 68.16 79.38 68.16 68ZM67.71 102C67.71 113.23 67.71 124.47 67.71 135.7C56.57 135.7 45.44 135.7 34.31 135.7C34.31 124.47 34.31 113.23 34.31 102C45.44 102 56.57 102 67.71 102Z" fill="#854dfc" fill-rule="evenodd" stroke="#854dfc" stroke-width="0.25" stroke-linejoin="round"/>
<path d="M68.16 68C68.16 79.38 68.16 90.77 68.15 102.16C68.02 113.49 67.88 124.83 67.75 136.17C56.44 136.03 45.14 135.89 33.83 135.75C33.85 113.29 33.87 90.82 33.89 68.36C45.31 68.24 56.74 68.12 68.16 68ZM67.71 102C56.57 102 45.44 102 34.31 102C34.31 113.23 34.31 124.47 34.31 135.7C45.44 135.7 56.57 135.7 67.71 135.7C67.71 124.47 67.71 113.23 67.71 102Z" fill="#9f80f9" fill-rule="evenodd" stroke="#9f80f9" stroke-width="0.25" stroke-linejoin="round"/>
<path d="M101.95 33.89C90.72 34.1 79.48 34.3 68.25 34.5C68.22 45.67 68.19 56.83 68.16 68C56.74 68.12 45.31 68.24 33.89 68.36C32.37 61.1 33.66 52.21 33.66 44.75C33.66 41.27 32.99 36.96 34.25 33.76C56.82 33.81 79.39 33.85 101.95 33.89Z" fill="#8fe4ba" fill-rule="evenodd" stroke="#8fe4ba" stroke-width="0.25" stroke-linejoin="round"/>
</svg>